<svg width="20" height="23" viewBox="0 0 20 23" fill="none" xmlns="http://www.w3.org/2000/svg">
<path fill-rule="evenodd" clip-rule="evenodd" d="M4.74531 6.3842C5.31296 5.46289 6.34333 4.75239 7.54986 4.35092L7.49581 4.35313C6.57046 1.01847 10.9429 -0.251034 13.3355 2.50781C14.4552 3.83953 15.7847 5.73764 16.9893 4.09786C16.8265 5.92186 15.6908 6.70685 14.5974 6.437C15.2102 7.28228 15.5647 8.25053 15.7325 9.24961C16.6877 9.4369 17.4131 10.3579 17.4131 11.4661C17.4131 12.6826 16.5385 13.674 15.4457 13.716C15.0637 15.1348 14.4787 16.2758 13.9861 16.762C13.4115 17.452 12.6986 17.9592 11.9207 18.2799C9.44557 19.7272 12.1671 20.5766 13.2852 21.3464C9.16621 20.8574 7.66918 20.0295 8.03936 18.386C7.16269 18.0794 6.34736 17.5398 5.69101 16.762C5.372 16.2854 4.73418 15.3005 4.24246 13.9997C4.17574 14.0071 4.10835 14.0108 4.03971 14.0108C2.91325 14.0108 2 13.0027 2 11.7594C2 10.6672 2.70464 9.75649 3.64016 9.55162C3.76803 8.52769 4.10432 7.45844 4.74531 6.3842ZM9.06138 4.02433C9.4879 3.97921 9.92086 3.97172 10.3505 4.00541C10.5115 3.89108 10.6159 3.70973 10.6159 3.5066V3.35924C10.6159 3.01556 10.3168 2.73437 9.9512 2.73437H9.43232C9.06666 2.73437 8.76752 3.01556 8.76752 3.35924V3.5066C8.76752 3.72145 8.88435 3.91181 9.06138 4.02433ZM15.8372 10.2021C15.8867 11.0845 15.8104 11.9683 15.6558 12.7938C16.2022 12.6525 16.609 12.1117 16.609 11.4661C16.609 10.8941 16.2897 10.4046 15.8372 10.2021ZM3.95043 13.1196C3.72176 12.3191 3.57056 11.4327 3.57834 10.4941C3.12435 10.696 2.80419 11.1864 2.80419 11.7594C2.80419 12.4795 3.30944 13.0689 3.95043 13.1196ZM13.795 7.05265C15.9779 9.86189 14.3848 14.3938 13.3126 15.4046C13.1785 15.5588 13.0351 15.7016 12.8843 15.833C11.844 16.5175 10.5375 15.883 9.9632 15.4278C9.29629 16.1126 7.75664 16.3966 6.77792 15.8503C6.61904 15.7146 6.46794 15.5659 6.32547 15.4046C5.63965 14.4255 3.20317 10.7775 5.52867 7.05265C6.95283 4.84455 11.8339 4.13492 13.795 7.05265Z" fill="#0078D4"/>
<path d="M8.00038 8.18612L6.36157 8.46373C6.18055 8.49439 6.06906 8.7031 6.11255 8.92989C6.15604 9.15669 6.33804 9.31568 6.51906 9.28502L8.15787 9.00741C8.33889 8.97675 8.45038 8.76804 8.40689 8.54124C8.36339 8.31445 8.18139 8.15545 8.00038 8.18612Z" fill="#0078D4"/>
<path d="M12.7016 8.21845L11.0434 8.3614C10.8602 8.37719 10.7299 8.57603 10.7523 8.80551C10.7747 9.035 10.9413 9.20823 11.1245 9.19244L12.7827 9.04949C12.9659 9.0337 13.0962 8.83486 13.0738 8.60538C13.0514 8.37589 12.8848 8.20266 12.7016 8.21845Z" fill="#0078D4"/>
<path d="M7.54218 11.2383C7.91633 11.2383 8.21965 10.9187 8.21965 10.5244C8.21965 10.1301 7.91633 9.81044 7.54218 9.81044C7.16802 9.81044 6.8647 10.1301 6.8647 10.5244C6.8647 10.9187 7.16802 11.2383 7.54218 11.2383Z" fill="#0078D4"/>
<path d="M11.84 12.8925L9.83734 13.0516L9.7855 12.4364L11.7882 12.2773L12.1422 12.5683L11.84 12.8925ZM11.7882 12.2773C11.969 12.263 12.1273 12.3891 12.1416 12.5589C12.1559 12.7287 12.0209 12.8782 11.84 12.8925L11.7882 12.2773ZM9.91702 14.601L9.86518 13.9859L9.95456 13.977L10.0426 13.9647L10.1288 13.9494L10.2135 13.9308L10.2965 13.9092L10.3774 13.8848L10.4564 13.8573L10.5334 13.8274L10.6079 13.7947L10.6804 13.7595L10.7503 13.7221L10.8176 13.6823L10.8822 13.6405L10.944 13.5966L11.003 13.5508L11.0588 13.5034L11.1117 13.4542L11.1613 13.4038L11.2076 13.3518L11.2507 13.2986L11.2901 13.2444L11.3263 13.189L11.3588 13.1329L11.3878 13.0762L11.4131 13.0187L11.4348 12.9605L11.4528 12.9017L11.4671 12.8427L11.4775 12.7832L11.4842 12.723L11.4871 12.6626L11.486 12.6015L12.1422 12.5683L12.1441 12.6672L12.1395 12.7654L12.1288 12.8623L12.1119 12.9581L12.0891 13.0526L12.0607 13.1452L12.0269 13.236L11.9876 13.325L11.9435 13.4119L11.8944 13.4964L11.8408 13.5784L11.7827 13.6582L11.7202 13.7354L11.6538 13.8099L11.5831 13.882L11.5089 13.9509L11.4309 14.0172L11.3495 14.0802L11.2649 14.1404L11.1768 14.1974L11.0857 14.2512L10.9916 14.3017L10.895 14.3486L10.7953 14.3922L10.6932 14.4322L10.5886 14.4683L10.4816 14.5007L10.3726 14.529L10.2615 14.5534L10.1484 14.5736L10.0335 14.5895L9.91702 14.601ZM9.91702 14.601C9.73616 14.6153 9.57786 14.4893 9.56355 14.3195C9.54925 14.1496 9.68432 14.0002 9.86518 13.9859L9.91702 14.601ZM7.78275 12.5955L7.83459 13.2107L8.1368 12.8865L8.14198 12.947L8.15091 13.0064L8.16358 13.0645L8.1799 13.1212L8.19978 13.1767L8.2233 13.231L8.25018 13.2843L8.28061 13.3362L8.3144 13.387L8.35155 13.4363L8.39226 13.4845L8.43613 13.531L8.48298 13.5758L8.53318 13.619L8.58656 13.6606L8.64282 13.7001L8.70205 13.7376L8.76406 13.773L8.82886 13.8063L8.89626 13.8372L8.96605 13.8655L9.03824 13.8913L9.11283 13.9144L9.18925 13.9348L9.26797 13.9522L9.34861 13.9667L9.43088 13.9781L9.51478 13.9863L9.60032 13.9913L9.68739 13.993L9.77562 13.9911L9.86518 13.9859L9.91702 14.601L9.80019 14.608L9.68451 14.6104L9.56998 14.6082L9.45699 14.6017L9.34525 14.5908L9.23533 14.5755L9.12742 14.556L9.02125 14.5325L8.91718 14.5048L8.81552 14.4733L8.71606 14.4378L8.6192 14.3984L8.52512 14.3553L8.43382 14.3085L8.3455 14.2581L8.26035 14.2041L8.17856 14.1466L8.10022 14.0856L8.02544 14.0213L7.9544 13.9534L7.88768 13.8825L7.82528 13.8085L7.76701 13.7313L7.71363 13.6511L7.66496 13.5681L7.62157 13.4823L7.58346 13.394L7.55091 13.303L7.52422 13.21L7.50349 13.115L7.4888 13.0181L7.48054 12.9197L7.78275 12.5955ZM7.48054 12.9197C7.47181 12.7495 7.61168 12.6039 7.79283 12.5948C7.97398 12.5857 8.12806 12.7163 8.1368 12.8865L7.48054 12.9197ZM9.83734 13.0516L7.83459 13.2107L7.78275 12.5955L9.7855 12.4364L9.83734 13.0516ZM9.7855 12.4364C9.96637 12.4221 10.1247 12.5482 10.139 12.718C10.1533 12.8878 10.0182 13.0373 9.83734 13.0516L9.7855 12.4364Z" fill="#0078D4"/>
<path d="M11.8063 11.0455C12.1805 11.0455 12.4838 10.7258 12.4838 10.3315C12.4838 9.93722 12.1805 9.61757 11.8063 9.61757C11.4321 9.61757 11.1288 9.93722 11.1288 10.3315C11.1288 10.7258 11.4321 11.0455 11.8063 11.0455Z" fill="#0078D4"/>
</svg>
