<svg width="144" height="47" viewBox="0 0 144 47" fill="none" xmlns="http://www.w3.org/2000/svg">
<path d="M77.1095 29.8755C79.0863 29.8755 80.7333 29.0284 81.6744 27.6635L79.6743 26.2045C79.2977 26.6984 78.5446 27.3575 77.1095 27.3575C75.7679 27.3575 74.7089 26.487 74.4268 25.0281H82.1928V24.2282C82.1928 21.0043 80.216 18.6042 76.9921 18.6042C73.721 18.6042 71.6034 21.0043 71.6034 24.2282C71.6034 27.4521 73.7921 29.8761 77.11 29.8761L77.1095 29.8755ZM74.4741 23.1686C74.7567 21.8037 75.6505 20.9332 76.9921 20.9332C78.3804 20.9332 79.1808 21.8977 79.4395 23.1686H74.4741ZM84.381 29.6403H87.3223V23.4746C87.3223 21.5684 88.6166 21.1212 89.4637 21.1212C90.2875 21.1212 91.6286 21.5684 91.6286 23.4746V29.6403H94.5699V23.0274C94.5699 19.7095 92.3105 18.6504 90.3576 18.6504C89.2991 18.6504 88.1455 18.9564 87.3223 19.8508V18.8151H84.381V29.6397V29.6403ZM98.7827 17.2154C99.5592 17.2154 100.406 16.6035 100.406 15.5679C100.406 14.5561 99.5592 14.0149 98.7827 14.0149C97.9828 14.0149 97.1591 14.5561 97.1591 15.5679C97.1591 16.6035 97.9828 17.2154 98.7827 17.2154ZM97.304 29.6403H100.249L100.273 18.8156H97.304V29.6403ZM108.102 29.8755C110.078 29.8755 111.725 29.0284 112.667 27.6635L110.666 26.2045C110.29 26.6984 109.537 27.3575 108.102 27.3575C106.76 27.3575 105.701 26.487 105.419 25.0281H113.185V24.2282C113.185 21.0043 111.208 18.6042 107.984 18.6042C104.713 18.6042 102.596 21.0043 102.596 24.2282C102.596 27.4521 104.784 29.8761 108.102 29.8761L108.102 29.8755ZM105.466 23.1686C105.749 21.8037 106.643 20.9332 107.984 20.9332C109.373 20.9332 110.173 21.8977 110.432 23.1686H105.466ZM116.479 29.7815C117.374 29.7815 118.032 29.1229 118.032 28.2052C118.032 27.3108 117.374 26.6756 116.479 26.6756C115.562 26.6756 114.903 27.3108 114.903 28.2052C114.903 29.1229 115.562 29.7815 116.479 29.7815ZM124.409 29.8283C125.774 29.8283 126.786 29.3343 127.516 28.5106V29.6403H130.457V18.8156H127.516V19.9687C126.787 19.1449 125.774 18.651 124.409 18.651C121.444 18.651 119.279 20.9571 119.279 24.2282C119.279 27.4521 121.444 29.8288 124.409 29.8288V29.8283ZM124.833 27.0516C123.21 27.0516 122.127 25.8518 122.127 24.2277C122.127 22.6041 123.21 21.4037 124.833 21.4037C126.457 21.4037 127.516 22.6041 127.516 24.2277C127.516 25.8513 126.457 27.0516 124.833 27.0516ZM134.67 17.2154C135.446 17.2154 136.293 16.6035 136.293 15.5679C136.293 14.5561 135.446 14.0149 134.67 14.0149C133.87 14.0149 133.046 14.5561 133.046 15.5679C133.046 16.6035 133.87 17.2154 134.67 17.2154ZM133.191 29.6403H136.136L136.16 18.8156H133.191V29.6403Z" fill="#0078D4"/>
<path d="M8.33685 29.6875H11.3722V14.3914H8.33685V29.6875ZM13.9608 29.6875H16.9021V23.5218C16.9021 21.6157 18.1965 21.1685 19.0436 21.1685C19.8673 21.1685 21.2084 21.6157 21.2084 23.5218V29.6875H24.1497V23.0746C24.1497 19.7568 21.8904 18.6977 19.9375 18.6977C18.8789 18.6977 17.7254 19.0036 16.9021 19.898V18.8624H13.9608V29.687V29.6875ZM27.4447 29.6875H30.3861V21.0983H32.8334V18.8624H30.3861V18.0625C30.3861 17.1447 30.8805 16.6742 31.7983 16.6742H33.0926V14.3914H30.8805C28.5978 14.3914 27.4447 15.6151 27.4447 17.8979V18.8624H26.033V21.0983H27.4447V29.6875ZM34.9754 29.6875H37.9167V24.7221C37.9167 21.6395 40.67 21.4749 41.7285 21.451V18.6977C40.2929 18.7211 38.8345 19.3329 37.9167 20.8158V18.8624H34.9754V29.687V29.6875ZM47.8709 29.8755C49.2358 29.8755 50.2476 29.3816 50.9773 28.5578V29.6875H53.9187V18.8629H50.9773V20.0159C50.2481 19.1922 49.2358 18.6982 47.8709 18.6982C44.9057 18.6982 42.7408 21.0043 42.7408 24.2755C42.7408 27.4993 44.9057 29.8761 47.8709 29.8761V29.8755ZM48.2947 27.0989C46.6711 27.0989 45.5887 25.8991 45.5887 24.2749C45.5887 22.6513 46.6711 21.451 48.2947 21.451C49.9183 21.451 50.9773 22.6513 50.9773 24.2749C50.9773 25.8986 49.9188 27.0989 48.2947 27.0989Z" fill="#B2B3B3"/>
<path fill-rule="evenodd" clip-rule="evenodd" d="M64.2826 19.818L64.2821 19.8186C61.9874 21.1601 64.5106 21.947 65.5473 22.6602C61.7288 22.2072 60.3415 21.4396 60.6848 19.9162C59.8719 19.6321 59.1162 19.1319 58.508 18.411C57.7533 17.2834 55.0722 13.081 57.6313 8.79083C58.1574 7.93643 59.1126 7.27785 60.2308 6.90596L60.1804 6.90804C59.3224 3.81714 63.3757 2.6402 65.5935 5.19768C66.6313 6.43176 67.8638 8.19146 68.9805 6.6712C68.8294 8.36286 67.776 9.09 66.7622 8.83914C69.1114 12.0781 67.3704 17.2517 66.1966 18.4105C65.6642 19.0504 65.003 19.5204 64.2821 19.8175L64.2826 19.818ZM60.1659 14.8142C60.1659 15.5138 60.7435 16.0701 61.3834 16.2836C61.6244 16.3636 61.8737 16.4082 62.1245 16.4165H62.3063C62.513 16.4093 62.7197 16.3781 62.9218 16.3231C63.2152 16.2431 63.5233 16.1044 63.7653 15.9179C63.9144 15.8031 64.0224 15.7013 64.1424 15.5512C64.3371 15.3076 64.4898 14.9617 64.4898 14.6496V14.5286C64.4878 14.4906 64.4805 14.4538 64.4628 14.4179C64.4109 14.3146 64.3075 14.2517 64.187 14.2517C64.0686 14.2517 63.6827 14.2902 63.531 14.3021L62.5961 14.3759C62.5541 14.3821 62.5089 14.3826 62.4663 14.3847C62.4284 14.3862 62.3718 14.3951 62.3338 14.3971C62.2424 14.4013 62.1562 14.4091 62.0632 14.4164L60.6053 14.5343C60.5586 14.5405 60.517 14.5384 60.4697 14.5431C60.3659 14.5535 60.3077 14.5784 60.2454 14.6407C60.2043 14.6818 60.1659 14.7524 60.1659 14.8137V14.8142ZM63.8442 14.848C63.3669 16.1615 61.321 16.1423 60.8219 15.0677C61.8295 14.9944 62.8366 14.9212 63.8442 14.848ZM64.8046 12.4499C64.8046 12.0843 64.5236 11.7882 64.1766 11.7882C63.8297 11.7882 63.5487 12.0843 63.5487 12.4499C63.5487 12.8156 63.8297 13.1122 64.1766 13.1122C64.5236 13.1122 64.8046 12.8156 64.8046 12.4499ZM60.852 12.6286C60.852 12.263 60.571 11.9669 60.2241 11.9669C59.8771 11.9669 59.5961 12.263 59.5961 12.6286C59.5961 12.9943 59.8771 13.2908 60.2241 13.2908C60.571 13.2908 60.852 12.9943 60.852 12.6286ZM63.4698 10.6238L65.0066 10.4913C65.1765 10.4768 65.3307 10.6373 65.352 10.8502L65.3515 10.8497C65.3728 11.0627 65.2518 11.247 65.0819 11.2616L63.5451 11.394C63.3757 11.4091 63.221 11.2481 63.2002 11.0356H63.1997C63.1789 10.8232 63.2999 10.6388 63.4698 10.6238ZM59.1297 10.7188L60.6489 10.4617C60.8172 10.4332 60.986 10.5807 61.026 10.791C61.0665 11.0014 60.9632 11.1946 60.7949 11.2231L59.2757 11.4802C59.1079 11.5088 58.9396 11.3618 58.8991 11.1515V11.1509C58.8591 10.9411 58.962 10.7474 59.1302 10.7188H59.1297ZM67.8342 19.7432C67.5246 20.0777 67.3538 20.3598 67.1772 20.8355C66.6593 22.2327 66.5399 22.7251 66.3524 24.2739C66.3352 24.4167 66.3233 24.5222 66.2947 24.638C66.2885 24.6619 66.263 24.7486 66.2516 24.7777C66.2163 24.8702 66.2189 24.8577 66.1862 24.906C65.8984 24.8374 65.6746 24.6993 65.3936 24.5918C62.2996 24.2059 60.664 24.478 59.2378 24.9086C59.2284 24.8941 59.2196 24.8733 59.2149 24.8613C59.2102 24.8494 59.1988 24.8281 59.1931 24.8135L59.1245 24.5575C58.936 23.5353 58.9697 23.2549 58.6654 22.0156C58.2613 20.3681 57.8629 20.2081 57.6235 19.723C57.2365 19.9089 57.0096 20.5068 56.7686 20.9456C56.4164 21.5866 56.1178 22.3631 56.0118 23.2086C55.762 25.2062 56.2694 26.474 57.4194 27.7912C60.6354 29.3136 65.8912 25.7147 66.0376 25.2441C65.7592 25.9271 64.3589 26.8553 63.6489 27.2672L63.3394 27.4573C63.2454 27.5393 63.3129 27.4614 63.2386 27.5653C64.4919 27.8956 64.8103 28.36 66.3669 28.1127C69.6739 27.5871 69.5949 21.9507 68.8849 20.9784C68.6361 20.6013 68.1417 19.8949 67.8347 19.7427L67.8342 19.7432ZM69.0953 27.2079C68.458 30.7112 62.9187 32.1079 59.2242 30.5658C59.1817 30.584 59.1375 30.6001 59.097 30.6162C58.977 30.6645 58.8602 30.7066 58.7417 30.7569C58.669 30.7881 58.4992 30.9055 58.4472 30.958C58.3626 31.0421 58.2873 31.1216 58.2255 31.2244C57.9351 31.7069 58.0478 32.257 58.5849 32.5255C59.0991 32.7831 59.9602 32.7909 60.6495 32.7909C61.3257 32.7909 61.9713 32.7592 62.6486 32.7592H63.0262C63.0994 32.7592 63.8572 32.7831 63.9279 32.794C63.9777 32.8018 64.0541 32.8054 64.1044 32.8065C64.2862 32.8111 64.7615 32.8776 64.937 32.9026C65.2035 32.94 65.4528 32.9945 65.7099 33.0589C66.0397 33.1415 66.3794 33.2469 66.6858 33.3814C66.945 33.4952 67.1881 33.6126 67.4239 33.7611C67.5023 33.8105 67.5724 33.853 67.6488 33.906C67.7823 33.9985 68.0035 34.1616 68.1199 34.2774L68.2643 34.4083C68.3318 34.4602 68.3858 34.5355 68.4466 34.5958L68.7883 35.0019C68.966 35.2388 69.0704 35.4408 69.1992 35.7093C69.3259 35.9732 69.409 36.2428 69.4833 36.5357C69.624 37.0946 69.6531 37.5402 69.6531 38.1214L69.6453 38.3255C69.6458 38.4517 69.6266 38.5805 69.6147 38.7047C69.5866 39.0002 69.5248 39.2854 69.4552 39.5684C69.3394 40.0354 69.1509 40.4675 68.9026 40.8737C68.7255 41.1635 68.5156 41.4419 68.2783 41.6818L67.8571 42.087C67.8176 42.1202 67.7838 42.1462 67.7438 42.1784C67.4732 42.3976 67.1876 42.5871 66.878 42.7533C66.8526 42.7668 66.838 42.7772 66.8126 42.7902C66.5461 42.9227 66.3098 43.0333 66.0309 43.1424C65.2398 43.4519 64.1948 43.6597 63.3332 43.7267L61.5137 43.7823H61.4893C61.4379 43.7812 61.3963 43.7745 61.3345 43.7745L61.1616 43.7662C61.1304 43.7656 61.0967 43.7682 61.0665 43.7667C61.0312 43.7651 61.0286 43.7589 60.9881 43.7589C60.8468 43.7573 60.4583 43.7272 60.3222 43.7085L59.9976 43.6711C59.3489 43.5927 58.7147 43.4462 58.0987 43.2405C57.9024 43.1751 57.7128 43.0951 57.5248 43.0115L57.0028 42.7305C56.8522 42.6406 56.714 42.5414 56.5759 42.4334C56.5052 42.3783 56.4429 42.3274 56.3743 42.2724L56.2757 42.1903C56.2107 42.1358 56.1546 42.0755 56.0876 42.0241C56.0549 41.9987 56.0253 41.9644 55.9957 41.9348C55.9619 41.901 55.9427 41.874 55.909 41.8408C55.8264 41.7592 55.7365 41.6366 55.6716 41.5426C55.3636 41.0965 55.1325 40.5802 55.0208 40.0447C54.9273 39.5954 54.9034 39.3368 54.9034 38.8631C54.9034 38.4112 54.9948 37.9469 55.1486 37.5335C55.2691 37.2094 55.4353 36.9211 55.6488 36.6562L56.1256 36.1571C56.1941 36.0906 56.2684 36.0402 56.3447 35.9831C56.739 35.6912 57.3607 35.5255 57.8468 35.5255C57.839 35.5187 57.8479 35.525 57.8333 35.5156C57.7611 35.4694 57.6624 35.4211 57.5617 35.3541C57.53 35.3328 57.5051 35.3162 57.4718 35.2944L57.0423 34.9604C56.9628 34.897 56.888 34.8155 56.8132 34.7407C56.5608 34.4883 56.3577 34.1673 56.2066 33.8437C56.0518 33.5118 55.9417 33.0236 55.9417 32.6049C55.9417 32.1489 56.031 31.7454 56.2092 31.3449C56.2185 31.3236 56.2237 31.3075 56.2351 31.2846C56.3515 31.052 56.473 30.8956 56.6439 30.7019C56.661 30.6822 56.6642 30.6744 56.6834 30.6546L56.8215 30.5248C56.8371 30.5092 56.848 30.4957 56.8652 30.4817C56.9005 30.4521 56.9291 30.4287 56.9633 30.3991C57.1119 30.2692 57.3186 30.129 57.4879 30.0262C57.6136 29.9498 57.7403 29.875 57.8655 29.7971C56.9903 29.1338 56.3349 28.2254 56.0554 27.0516C57.691 29.6595 60.5092 29.1105 62.9711 28.0468C64.8056 29.1266 67.455 29.5649 69.0953 27.2116V27.2079ZM59.3645 38.2523C59.4346 38.2497 59.8273 38.2092 59.9093 38.0243C60.2043 37.3589 59.5343 36.1456 59.1261 35.9291C60.6749 36.181 62.07 35.954 63.5819 36.0646C64.2712 36.115 65.3577 36.3399 65.8938 36.786C66.4215 37.2255 66.7824 37.9729 66.8214 38.659C66.8764 39.9289 66.1103 41.1437 64.9916 41.7166C64.214 42.1155 63.6713 42.2906 62.7982 42.4126C61.8794 42.5414 60.7331 42.4604 59.8356 42.2267C59.2829 42.0828 58.7786 41.8844 58.2743 41.6164C57.6359 41.2731 56.5208 40.5324 56.392 39.7705C56.3229 39.3596 56.3328 38.8517 56.4943 38.4621C56.8127 37.6955 57.5674 37.0577 58.4389 37.3449C58.9168 37.5303 59.111 38.2663 59.364 38.2533L59.3645 38.2523ZM61.6321 6.60316C62.0274 6.56109 62.4289 6.55485 62.8267 6.5855C62.9758 6.47954 63.0729 6.31126 63.0729 6.12324V5.98664C63.0729 5.66825 62.7956 5.40752 62.4564 5.40752H61.9755C61.6368 5.40752 61.3595 5.66825 61.3595 5.98664V6.12324C61.3595 6.32217 61.4675 6.49876 61.6316 6.60316H61.6321ZM66.0205 9.41047C68.044 12.0147 66.5669 16.2155 65.5733 17.1525C65.4486 17.2954 65.3157 17.4278 65.176 17.5493C64.212 18.184 63.0007 17.5956 62.4684 17.1738C61.8503 17.8085 60.423 18.0718 59.5156 17.5654C59.3686 17.4397 59.2284 17.3021 59.0965 17.1525C58.4607 16.2451 56.2024 12.8634 58.3579 9.41047C59.6777 7.36355 64.2026 6.706 66.0205 9.41047ZM57.1701 15.8499C57.0724 15.5907 56.9805 15.3191 56.8994 15.035C56.3032 14.9908 55.8321 14.4429 55.8321 13.7739C55.8321 13.241 56.1308 12.785 56.5541 12.599C56.5561 12.3128 56.5748 12.0215 56.6117 11.7264C55.7422 11.9145 55.0868 12.7595 55.0868 13.7744C55.0868 14.9269 55.9334 15.8613 56.9774 15.8613C57.0423 15.8613 57.1067 15.8577 57.1701 15.8504V15.8499ZM67.7366 14.7348C67.6815 15.0282 67.6161 15.3134 67.5423 15.5876C68.5593 15.5533 69.3742 14.6324 69.3742 13.5017C69.3742 12.4712 68.6974 11.6153 67.8077 11.4454C67.8565 11.7368 67.8887 12.0313 67.9054 12.3263C68.3292 12.5118 68.6289 12.9683 68.6289 13.5017C68.6289 14.1037 68.2476 14.607 67.7366 14.7348Z" fill="#0078D4"/>
</svg>
