<svg width="149" height="60" viewBox="0 0 149 60" fill="none" xmlns="http://www.w3.org/2000/svg">
<path d="M79.953 35.8743C76.5012 35.8743 74.2244 33.3527 74.2244 29.9988C74.2244 26.6448 76.4277 24.1477 79.8306 24.1477C83.1846 24.1477 85.241 26.6448 85.241 29.9988V30.8311H77.1622C77.4559 32.349 78.5576 33.2548 79.953 33.2548C81.4464 33.2548 82.2298 32.5693 82.6215 32.0552L84.7024 33.573C83.7232 34.9929 82.0095 35.8743 79.953 35.8743ZM77.2111 28.8971H82.3767C82.1074 27.5751 81.275 26.5714 79.8306 26.5714C78.4352 26.5714 77.5049 27.4772 77.2111 28.8971ZM87.5268 35.6294V24.3681H90.5869V25.4452C91.4438 24.5149 92.6433 24.1967 93.745 24.1967C95.7769 24.1967 98.1272 25.2983 98.1272 28.7502V35.6294H95.067V29.2153C95.067 27.2324 93.6716 26.7672 92.8147 26.7672C91.9334 26.7672 90.5869 27.2324 90.5869 29.2153V35.6294H87.5268ZM102.509 22.7033C101.676 22.7033 100.819 22.0668 100.819 20.9896C100.819 19.9369 101.676 19.3739 102.509 19.3739C103.316 19.3739 104.198 19.9369 104.198 20.9896C104.198 22.0668 103.316 22.7033 102.509 22.7033ZM100.966 35.6294V24.3681H104.051L104.026 35.6294H100.966ZM112.204 35.8743C108.752 35.8743 106.476 33.3527 106.476 29.9988C106.476 26.6448 108.679 24.1477 112.082 24.1477C115.436 24.1477 117.492 26.6448 117.492 29.9988V30.8311H109.413C109.707 32.349 110.809 33.2548 112.204 33.2548C113.698 33.2548 114.481 32.5693 114.873 32.0552L116.954 33.573C115.974 34.9929 114.261 35.8743 112.204 35.8743ZM109.462 28.8971H114.628C114.359 27.5751 113.526 26.5714 112.082 26.5714C110.686 26.5714 109.756 27.4772 109.462 28.8971ZM120.929 35.7763C119.974 35.7763 119.288 35.0909 119.288 34.1361C119.288 33.2058 119.974 32.5448 120.929 32.5448C121.859 32.5448 122.544 33.2058 122.544 34.1361C122.544 35.0909 121.859 35.7763 120.929 35.7763ZM129.169 35.8253C126.085 35.8253 123.833 33.3527 123.833 29.9988C123.833 26.5959 126.085 24.1967 129.169 24.1967C130.589 24.1967 131.642 24.7108 132.401 25.5676V24.3681H135.461V35.6294H132.401V34.4543C131.642 35.3112 130.589 35.8253 129.169 35.8253ZM129.61 32.9365C131.299 32.9365 132.401 31.688 132.401 29.9988C132.401 28.3095 131.299 27.061 129.61 27.061C127.921 27.061 126.795 28.3095 126.795 29.9988C126.795 31.688 127.921 32.9365 129.61 32.9365ZM139.852 22.7033C139.02 22.7033 138.163 22.0668 138.163 20.9896C138.163 19.9369 139.02 19.3739 139.852 19.3739C140.66 19.3739 141.541 19.9369 141.541 20.9896C141.541 22.0668 140.66 22.7033 139.852 22.7033ZM138.31 35.6294V24.3681H141.394L141.37 35.6294H138.31Z" fill="#0078D4"/>
<path fill-rule="evenodd" clip-rule="evenodd" d="M61.3954 44.849L61.72 44.7626C61.7191 43.8868 61.52 43.2508 60.8713 42.8134C60.2148 42.3711 59.355 42.4239 58.6792 42.7103C58.2036 42.9114 57.9267 43.2204 57.649 43.533C56.3962 44.9435 56.6721 47.7891 58.1064 49.0538C58.8705 49.7276 59.4662 50.0652 60.4782 50.3605C61.4795 50.6525 62.5407 50.7801 63.6349 50.8078C66.5753 50.8817 69.9114 50.359 71.4836 47.714C72.4733 46.0493 72.4563 43.2538 71.2575 41.7266C68.0638 37.6586 60.876 40.8963 59.7979 38.6399C59.4868 37.9887 59.8143 37.3179 60.2535 36.9723C60.3301 36.9121 60.4404 36.8376 60.5351 36.7863C60.6588 36.7196 61.1249 36.5616 61.1824 36.5181L60.5342 35.9465C60.4541 35.881 60.3954 35.9433 60.2973 36.0082C59.3372 36.6427 58.161 37.0813 57.9953 38.7087C57.9378 39.2725 58.0319 39.7159 58.1997 40.1615C58.2933 40.4103 58.5049 40.739 58.6664 40.9413C58.9313 41.2736 59.3822 41.6422 59.7934 41.8762C61.7489 42.9871 64.8049 42.102 67.0843 42.6241C68.9125 43.0431 70.0354 44.4452 69.6363 46.6337C68.3201 51.2792 60.252 50.5718 58.1851 47.4884C57.3623 46.3676 58.0158 44.382 59.2844 43.8868C59.6963 43.7258 60.2461 43.7497 60.6165 43.9407C60.893 44.0831 61.2727 44.5516 61.3954 44.849Z" fill="#0078D4" stroke="#0078D4" stroke-width="0.596" stroke-miterlimit="22.9256" stroke-linecap="round" stroke-linejoin="round"/>
<path fill-rule="evenodd" clip-rule="evenodd" d="M70.3027 25.8193C69.9805 26.1674 69.8026 26.4606 69.6191 26.9556C69.0803 28.4089 68.9563 28.9212 68.7608 30.5322C68.7429 30.6809 68.7307 30.7903 68.7006 30.9109C68.6944 30.936 68.6675 31.0263 68.6559 31.0561C68.6193 31.152 68.6217 31.1395 68.5877 31.1896C68.2885 31.1181 68.0554 30.9744 67.7631 30.8627C64.545 30.461 62.8434 30.7444 61.3597 31.1923C61.3502 31.1771 61.3409 31.1556 61.3358 31.1431C61.3308 31.1309 61.3192 31.1085 61.3132 31.0933L61.242 30.8269C61.0456 29.7633 61.0811 29.4719 60.7646 28.1831C60.3441 26.4693 59.9299 26.303 59.6805 25.7982C59.2782 25.9919 59.0418 26.6135 58.7912 27.07C58.425 27.7367 58.1142 28.5448 58.0042 29.4242C57.7444 31.5022 58.2721 32.8208 59.4683 34.191C62.8139 35.7743 68.281 32.0311 68.433 31.5415C68.1437 32.2519 66.6867 33.2172 65.9483 33.646L65.6262 33.8436C65.5281 33.9288 65.5984 33.8477 65.5216 33.9562C66.8256 34.3001 67.1567 34.7832 68.7757 34.526C72.2158 33.9792 72.1339 28.116 71.3951 27.1043C71.1365 26.7124 70.6221 25.9776 70.3027 25.8193Z" fill="#0078D4"/>
<path fill-rule="evenodd" clip-rule="evenodd" d="M71.6144 33.584C70.6757 38.7469 59.5022 39.5121 58.0504 33.4177C59.7514 36.1307 62.6834 35.5591 65.2441 34.453C67.1528 35.5758 69.9087 36.0321 71.6144 33.584Z" fill="#0078D4"/>
<path fill-rule="evenodd" clip-rule="evenodd" d="M59.6894 14.4265C61.3195 11.7808 66.907 10.9306 69.1518 14.4265C71.6508 17.7924 69.8271 23.2222 68.5999 24.4333C66.564 26.8796 62.7221 26.9469 60.6013 24.4333C59.816 23.2604 57.0274 18.8893 59.6894 14.4265ZM68.4157 15.0711C70.5205 17.7799 68.9843 22.1497 67.9506 23.1245C67.8212 23.2732 67.683 23.4109 67.5375 23.5375C66.5345 24.1976 65.2745 23.5858 64.7208 23.1469C64.0777 23.8072 62.5931 24.0811 61.6493 23.5542C61.4962 23.4234 61.3504 23.2801 61.2131 23.1245C60.5518 22.1804 58.2024 18.6628 60.4448 15.0711C61.818 12.9418 66.5246 12.2576 68.4157 15.0711ZM64.7295 23.3116C65.2843 23.7521 66.5249 24.3597 67.5462 23.7777C65.8774 25.1536 63.3348 25.1831 61.6225 23.7729C62.6021 24.2649 64.0798 23.9786 64.7295 23.3116Z" fill="#0078D4"/>
<path fill-rule="evenodd" clip-rule="evenodd" d="M61.4047 23.6234C62.3643 24.2918 64.0289 24.0161 64.7286 23.2976C65.3004 23.7512 66.6015 24.3827 67.6371 23.7011C67.4177 24.3523 66.8274 25.2466 66.6081 25.8977C64.2214 27.2932 66.8459 28.1115 67.924 28.8538C63.699 28.3523 62.3351 27.481 62.9558 25.6864C62.9072 25.1557 61.4536 24.1541 61.4047 23.6234Z" fill="#0078D4"/>
<path fill-rule="evenodd" clip-rule="evenodd" d="M65.5278 12.3286C64.4657 12.375 63.4037 12.4215 62.3416 12.468C61.4494 9.2526 65.6655 8.02842 67.9726 10.6887C69.0523 11.9727 70.3343 13.8031 71.4959 12.2219C71.3364 14.0075 70.21 14.7605 69.1411 14.4649C68.548 13.6114 66.9946 12.3405 65.5278 12.3286ZM64.2089 10.9071H64.7092C65.0617 10.9071 65.3502 11.1783 65.3502 11.5097V11.6518C65.3502 11.9832 65.0617 12.2544 64.7092 12.2544H64.2089C63.8563 12.2544 63.5679 11.9832 63.5679 11.6518V11.5097C63.5679 11.1783 63.8563 10.9071 64.2089 10.9071Z" fill="#0078D4"/>
<path d="M62.828 16.164L61.2478 16.4317C61.0733 16.4613 60.9658 16.6625 61.0077 16.8812C61.0496 17.0999 61.2251 17.2532 61.3997 17.2236L62.9799 16.956C63.1545 16.9264 63.262 16.7251 63.22 16.5065C63.1781 16.2878 63.0026 16.1345 62.828 16.164Z" fill="#0078D4"/>
<path d="M67.3614 16.1952L65.7624 16.333C65.5858 16.3483 65.4601 16.54 65.4817 16.7613C65.5033 16.9826 65.664 17.1496 65.8406 17.1344L67.4396 16.9965C67.6162 16.9813 67.7419 16.7896 67.7203 16.5683C67.6987 16.347 67.538 16.18 67.3614 16.1952Z" fill="#0078D4"/>
<path d="M62.3863 19.1072C62.7471 19.1072 63.0395 18.799 63.0395 18.4188C63.0395 18.0386 62.7471 17.7304 62.3863 17.7304C62.0255 17.7304 61.7331 18.0386 61.7331 18.4188C61.7331 18.799 62.0255 19.1072 62.3863 19.1072Z" fill="#0078D4"/>
<path d="M66.5306 20.7021L64.5995 20.8555L64.5495 20.2625L66.4805 20.109L66.822 20.3898L66.5306 20.7021ZM66.4805 20.109C66.6548 20.0953 66.8077 20.2169 66.8214 20.3805C66.8351 20.5441 66.7049 20.6884 66.5306 20.7021L66.4805 20.109ZM64.6764 22.3497L64.6264 21.7567L64.7122 21.748L64.7974 21.7361L64.8808 21.7215L64.9619 21.7033L65.0421 21.6825L65.1201 21.6589L65.1964 21.6324L65.2709 21.6035L65.3427 21.5719L65.4128 21.5382L65.4795 21.5022L65.5445 21.4637L65.6071 21.4232L65.6667 21.3809L65.7233 21.3371L65.7772 21.2912L65.8282 21.2438L65.8759 21.1952L65.9206 21.1452L65.9617 21.0939L66.0004 21.0409L66.0353 20.9878L66.0666 20.9342L66.0943 20.8794L66.1187 20.8236L66.1396 20.7676L66.1572 20.711L66.1709 20.6538L66.1813 20.5963L66.1876 20.5388L66.1903 20.4806L66.1891 20.4213L66.822 20.3898L66.8238 20.4848L66.8193 20.5793L66.8089 20.6732L66.7925 20.7658L66.7705 20.8564L66.7433 20.9458L66.7106 21.0334L66.673 21.119L66.6304 21.2024L66.583 21.2846L66.5309 21.3639L66.4754 21.4402L66.4153 21.5147L66.3509 21.5868L66.2829 21.6563L66.2111 21.7227L66.1363 21.7865L66.0577 21.8476L65.976 21.9054L65.8914 21.9602L65.8038 22.0124L65.7126 22.0609L65.6193 22.1065L65.523 22.1483L65.4247 22.1867L65.324 22.2216L65.2209 22.2529L65.1163 22.2803L65.0084 22.3038L64.8993 22.3232L64.7891 22.3387L64.6764 22.3497ZM64.6764 22.3497C64.5021 22.3634 64.3492 22.2418 64.3355 22.0782C64.3218 21.9146 64.452 21.7704 64.6264 21.7567L64.6764 22.3497ZM62.6181 20.416L62.6682 21.009L62.9596 20.6964L62.9647 20.7548L62.9734 20.8123L62.9853 20.868L63.0011 20.9226L63.0204 20.9765L63.0431 21.029L63.0687 21.0799L63.0982 21.13L63.131 21.1795L63.1668 21.2268L63.2055 21.2727L63.2478 21.3177L63.2937 21.3612L63.342 21.4033L63.3929 21.4426L63.4478 21.481L63.505 21.5174L63.5646 21.5514L63.6269 21.5835L63.6921 21.613L63.7595 21.6405L63.8292 21.6655L63.9007 21.6878L63.9746 21.7072L64.0509 21.7242L64.1281 21.7382L64.2074 21.7492L64.2887 21.7573L64.371 21.762L64.4547 21.7635L64.5399 21.7617L64.6264 21.7567L64.6764 22.3497L64.5638 22.3566L64.4523 22.3589L64.3418 22.3569L64.2327 22.3503L64.1251 22.3399L64.019 22.3253L63.9144 22.3065L63.8125 22.2835L63.7124 22.257L63.6141 22.2263L63.5181 22.1924L63.4251 22.1542L63.3342 22.1128L63.2463 22.0675L63.1611 22.0192L63.0788 21.9668L63.0002 21.9116L62.9242 21.8526L62.8521 21.7904L62.7841 21.7254L62.7198 21.6571L62.659 21.5856L62.6029 21.5108L62.5517 21.4339L62.5049 21.3541L62.4626 21.2709L62.4262 21.1857L62.3949 21.0984L62.369 21.0087L62.3487 20.9166L62.3347 20.8233L62.3267 20.7286L62.6181 20.416ZM62.3267 20.7286C62.3183 20.5647 62.453 20.424 62.6277 20.4154C62.8023 20.4067 62.9513 20.5325 62.9596 20.6964L62.3267 20.7286ZM64.5995 20.8555L62.6682 21.009L62.6181 20.416L64.5495 20.2625L64.5995 20.8555ZM64.5495 20.2625C64.7238 20.2488 64.8767 20.3704 64.8904 20.534C64.9041 20.6976 64.7739 20.8418 64.5995 20.8555L64.5495 20.2625Z" fill="#0078D4"/>
<path d="M66.4981 18.9212C66.8589 18.9212 67.1513 18.613 67.1513 18.2328C67.1513 17.8527 66.8589 17.5445 66.4981 17.5445C66.1373 17.5445 65.8449 17.8527 65.8449 18.2328C65.8449 18.613 66.1373 18.9212 66.4981 18.9212Z" fill="#0078D4"/>
<path d="M8.40683 35.6786V19.7658H11.5649V35.6786H8.40683ZM14.2642 35.6786V24.4172H17.3243V25.4944C18.1812 24.5641 19.3808 24.2459 20.4824 24.2459C22.5144 24.2459 24.8646 25.3475 24.8646 28.7994V35.6786H21.8044V29.2645C21.8044 27.2815 20.409 26.8164 19.5521 26.8164C18.6708 26.8164 17.3243 27.2815 17.3243 29.2645V35.6786H14.2642ZM28.2912 35.6786V26.7429H26.8223V24.4172H28.2912V23.4135C28.2912 21.0388 29.4908 19.7658 31.8655 19.7658H34.1667V22.1405H32.8202C31.8655 22.1405 31.3514 22.6301 31.3514 23.5849V24.4172H33.8974V26.7429H31.3514V35.6786H28.2912ZM36.1156 35.6786V24.4172H39.1758V26.4492C40.1306 24.9068 41.6484 24.2703 43.1418 24.2459V27.1102C42.0401 27.1346 39.1758 27.306 39.1758 30.5131V35.6786H36.1156ZM49.5475 35.8745C46.4628 35.8745 44.2105 33.4019 44.2105 30.0479C44.2105 26.645 46.4628 24.2459 49.5475 24.2459C50.9674 24.2459 52.0201 24.76 52.779 25.6168V24.4172H55.8392V35.6786H52.779V34.5035C52.0201 35.3604 50.9674 35.8745 49.5475 35.8745ZM49.9881 32.9857C51.6773 32.9857 52.779 31.7371 52.779 30.0479C52.779 28.3587 51.6773 27.1102 49.9881 27.1102C48.2989 27.1102 47.1728 28.3587 47.1728 30.0479C47.1728 31.7371 48.2989 32.9857 49.9881 32.9857Z" fill="#B2B3B3"/>
<path fill-rule="evenodd" clip-rule="evenodd" d="M59.2093 21.7692C59.1077 21.5001 59.0123 21.217 58.928 20.9217C58.3076 20.8755 57.8177 20.3057 57.8177 19.6096C57.8177 19.0553 58.1285 18.5809 58.5686 18.3875C58.571 18.0898 58.5904 17.7867 58.6288 17.4795C57.7244 17.675 57.0423 18.5544 57.0423 19.6096C57.0423 20.8084 57.9229 21.7805 59.0091 21.7805C59.0767 21.7805 59.1435 21.7766 59.2093 21.7692Z" fill="#0078D4"/>
<path fill-rule="evenodd" clip-rule="evenodd" d="M70.2011 20.6094C70.1438 20.9145 70.0756 21.2113 69.9987 21.4965C71.0566 21.4608 71.9044 20.503 71.9044 19.3268C71.9044 18.2549 71.2006 17.3648 70.2753 17.1877C70.3262 17.4911 70.3593 17.7975 70.3766 18.1041C70.8173 18.2969 71.129 18.7716 71.129 19.3268C71.129 19.9529 70.7324 20.4768 70.2011 20.6094Z" fill="#0078D4"/>
</svg>
